<svg xmlns="http://www.w3.org/2000/svg" width="342.488" height="350.375" viewBox="0 0 342.488 350.375">
  <g id="Group_1062" data-name="Group 1062" transform="translate(-58.762 -39.146)">
    <g id="Background_2" data-name="Background 2" transform="translate(95.401 39.147)">
      <g id="Group_664" data-name="Group 664" transform="translate(154.216 60.75)">
        <g id="Group_661" data-name="Group 661">
          <path id="Path_1954" data-name="Path 1954" d="M352.883,171.546a37.861,37.861,0,1,1-7.712-52.923A37.82,37.82,0,0,1,352.883,171.546Z" transform="translate(-284.724 -111.072)" fill="#d3d4e9"/>
          <path id="Path_1955" data-name="Path 1955" d="M347.323,167.808a28.853,28.853,0,1,1-5.876-40.331A28.82,28.82,0,0,1,347.323,167.808Z" transform="translate(-286.38 -112.727)" fill="#e3e4f2"/>
          <g id="Group_660" data-name="Group 660" transform="translate(14.185 7.989)">
            <path id="Path_1956" data-name="Path 1956" d="M348.812,166.894c-.144-.1.515-1.188,1.466-3.236a30.629,30.629,0,0,0,2.628-9.076,29.535,29.535,0,0,0,.079-6.486,28.91,28.91,0,0,0-1.7-7.215,28.257,28.257,0,0,0-3.944-7.146,27.971,27.971,0,0,0-2.87-3.232,28.149,28.149,0,0,0-7.275-5.091,28.132,28.132,0,0,0-4.02-1.59,28.293,28.293,0,0,0-8.066-1.256,28.858,28.858,0,0,0-7.359.881,29.6,29.6,0,0,0-6.066,2.3,30.653,30.653,0,0,0-7.621,5.581c-1.6,1.6-2.393,2.589-2.536,2.487-.108-.073.449-1.237,1.9-3.063a26.684,26.684,0,0,1,7.511-6.376,28.9,28.9,0,0,1,14.17-3.842,27.83,27.83,0,0,1,4.3.27,28.214,28.214,0,0,1,4.4.95,29.455,29.455,0,0,1,4.352,1.684A29.573,29.573,0,0,1,346,128.927a29.418,29.418,0,0,1,3.073,3.511,29.419,29.419,0,0,1,4.128,7.75,28.928,28.928,0,0,1,1.249,14.629,26.716,26.716,0,0,1-3.414,9.244C349.821,166.047,348.917,166.97,348.812,166.894Z" transform="translate(-301.519 -120.53)" fill="#b5b7d6"/>
          </g>
        </g>
        <g id="Group_663" data-name="Group 663" transform="translate(19.495 20.833)">
          <g id="Group_662" data-name="Group 662">
            <path id="Path_1957" data-name="Path 1957" d="M318.454,168.45l-2.95,4.069-3.632-2.635,2.871-3.959c-3.438-2.827-6.073-6.455-6.938-9.465l5.211-2.984a18.135,18.135,0,0,0,5.178,7.69l4.4-6.068c-3.322-3.9-6.851-8.515-3.083-13.709,2.792-3.851,7.986-5.128,14.2-1.619l2.925-4.033,3.633,2.634-2.873,3.96a20.3,20.3,0,0,1,5.768,7.562l-5.057,3.152a18.381,18.381,0,0,0-4.188-5.921l-4.478,6.177c3.347,3.868,6.8,8.427,3.09,13.548C329.789,170.629,324.657,171.9,318.454,168.45Zm8.011-18.691,3.74-5.158c-2.241-.96-3.768-.459-4.638.739C324.647,146.611,325.235,148.092,326.465,149.759Zm-.1,13.287c.922-1.272.369-2.726-.8-4.4l-3.636,5.014C324.038,164.573,325.522,164.208,326.365,163.046Z" transform="translate(-307.805 -135.737)" fill="#b5b7d6"/>
          </g>
        </g>
      </g>
      <g id="Group_669" data-name="Group 669" transform="translate(0 139.882)">
        <g id="Group_666" data-name="Group 666">
          <path id="Path_1958" data-name="Path 1958" d="M189.046,242.062a43.678,43.678,0,1,1-49.491-36.842A43.63,43.63,0,0,1,189.046,242.062Z" transform="translate(-102.14 -204.759)" fill="#d3d4e9"/>
          <path id="Path_1959" data-name="Path 1959" d="M180.673,245.465a33.286,33.286,0,1,1-37.715-28.076A33.247,33.247,0,0,1,180.673,245.465Z" transform="translate(-104.052 -206.667)" fill="#e3e4f2"/>
          <g id="Group_665" data-name="Group 665" transform="translate(9.79 9.107)">
            <path id="Path_1960" data-name="Path 1960" d="M180.4,244.2c-.2.036-.549-1.389-1.446-3.835a35.337,35.337,0,0,0-5.267-9.543,34.039,34.039,0,0,0-5.231-5.352,33.322,33.322,0,0,0-7.273-4.5,32.587,32.587,0,0,0-9.049-2.6,32.19,32.19,0,0,0-4.978-.291,32.531,32.531,0,0,0-10.086,1.789,32.465,32.465,0,0,0-4.575,1.986,32.7,32.7,0,0,0-7.6,5.562,33.3,33.3,0,0,0-5.279,6.726,34.092,34.092,0,0,0-3.069,6.825,35.343,35.343,0,0,0-1.656,10.771c0,2.6.163,4.064-.037,4.1-.146.03-.643-1.375-.954-4.043a30.809,30.809,0,0,1,.916-11.33,33.346,33.346,0,0,1,8.414-14.7,32.107,32.107,0,0,1,3.724-3.289,32.551,32.551,0,0,1,4.361-2.816,33.851,33.851,0,0,1,4.922-2.18,34.111,34.111,0,0,1,10.878-1.931,33.95,33.95,0,0,1,5.371.354,33.949,33.949,0,0,1,9.692,2.948,33.366,33.366,0,0,1,12.962,10.9,30.832,30.832,0,0,1,4.764,10.321C180.535,242.688,180.551,244.177,180.4,244.2Z" transform="translate(-113.731 -215.541)" fill="#b5b7d6"/>
          </g>
        </g>
        <g id="Group_668" data-name="Group 668" transform="translate(28.893 20.365)">
          <g id="Group_667" data-name="Group 667">
            <path id="Path_1961" data-name="Path 1961" d="M157.718,271.2l.917,5.726-5.112.817-.892-5.571c-5.11.5-10.219-.3-13.382-2.051l1.812-6.687a20.92,20.92,0,0,0,10.5,2.041l-1.368-8.537c-5.894-.47-12.535-1.347-13.705-8.658-.867-5.418,2.324-10.7,10.252-12.912l-.909-5.675,5.113-.818.892,5.573a23.411,23.411,0,0,1,10.875,1.455l-1.548,6.7a21.219,21.219,0,0,0-8.247-1.407l1.392,8.69c5.885.42,12.425,1.314,13.579,8.52C168.736,263.717,165.588,268.939,157.718,271.2ZM148.99,249.42l-1.163-7.258c-2.611,1.047-3.446,2.7-3.177,4.389C144.937,248.339,146.626,249.066,148.99,249.42Zm10.765,10.913c-.287-1.791-1.924-2.523-4.246-2.939l1.129,7.054C159.1,263.476,160.016,261.968,159.754,260.333Z" transform="translate(-136.348 -228.871)" fill="#b5b7d6"/>
          </g>
        </g>
      </g>
      <g id="Group_674" data-name="Group 674" transform="translate(132.543)">
        <g id="Group_671" data-name="Group 671">
          <path id="Path_1962" data-name="Path 1962" d="M301.859,64.62a21.578,21.578,0,1,1-17.285-25.106A21.554,21.554,0,0,1,301.859,64.62Z" transform="translate(-259.064 -39.147)" fill="#d3d4e9"/>
          <path id="Path_1963" data-name="Path 1963" d="M297.755,64.625a16.444,16.444,0,1,1-13.171-19.133A16.424,16.424,0,0,1,297.755,64.625Z" transform="translate(-260.008 -40.089)" fill="#e3e4f2"/>
          <g id="Group_670" data-name="Group 670" transform="translate(5.287 4.502)">
            <path id="Path_1964" data-name="Path 1964" d="M297.873,64a9.733,9.733,0,0,1-.066-2.024,17.452,17.452,0,0,0-.945-5.3,16.82,16.82,0,0,0-1.595-3.335,16.476,16.476,0,0,0-2.686-3.26,16.1,16.1,0,0,0-3.818-2.658,15.948,15.948,0,0,0-2.282-.928,16.064,16.064,0,0,0-5-.768,16.1,16.1,0,0,0-2.456.2,16.16,16.16,0,0,0-4.439,1.392,16.436,16.436,0,0,0-3.539,2.306,16.84,16.84,0,0,0-2.521,2.7,17.464,17.464,0,0,0-2.489,4.774,9.615,9.615,0,0,1-.669,1.91,4.818,4.818,0,0,1,.2-2.042,15.216,15.216,0,0,1,2.232-5.153,16.473,16.473,0,0,1,6.275-5.536,15.847,15.847,0,0,1,2.264-.946,16.087,16.087,0,0,1,2.487-.622,16.766,16.766,0,0,1,2.649-.237,16.907,16.907,0,0,1,5.4.829,16.859,16.859,0,0,1,2.455,1.02,16.732,16.732,0,0,1,4.064,2.921,16.471,16.471,0,0,1,4.327,7.162,15.241,15.241,0,0,1,.586,5.586A4.84,4.84,0,0,1,297.873,64Z" transform="translate(-265.323 -44.477)" fill="#b5b7d6"/>
          </g>
        </g>
        <g id="Group_673" data-name="Group 673" transform="translate(13.152 10.212)">
          <g id="Group_672" data-name="Group 672">
            <path id="Path_1965" data-name="Path 1965" d="M283.1,72.541l-.482,2.824-2.52-.432.47-2.748a12.117,12.117,0,0,1-5.933-3.088l1.911-2.84a10.342,10.342,0,0,0,4.585,2.626l.719-4.21c-2.683-1.158-5.649-2.625-5.032-6.23.456-2.672,2.789-4.634,6.849-4.407l.478-2.8,2.521.431-.47,2.748a11.559,11.559,0,0,1,4.854,2.411l-1.79,2.886a10.468,10.468,0,0,0-3.633-1.971l-.732,4.286c2.686,1.133,5.6,2.592,5,6.146C289.444,70.8,287.14,72.738,283.1,72.541Zm-.617-11.573.612-3.58c-1.388.074-2.042.715-2.184,1.547C280.76,59.818,281.434,60.427,282.483,60.968Zm3.3,6.816c.151-.883-.5-1.486-1.518-2.05l-.595,3.479C284.978,69.152,285.644,68.591,285.782,67.784Z" transform="translate(-274.635 -51.237)" fill="#b5b7d6"/>
          </g>
        </g>
      </g>
    </g>
    <g id="Background_1" data-name="Background 1" transform="translate(70.845 71.285)">
      <path id="Path_1966" data-name="Path 1966" d="M74.244,172.928C83.66,247.086,120.717,299.9,229.423,320.185c60.457,11.283,170.705-24.76,163.435-90.558-8.073-73.062-84.2-42.46-147-66.012C208.3,149.528,188.268,72.856,127.345,77.39,79.185,80.974,69.2,133.231,74.244,172.928Z" transform="translate(-73.068 -77.197)" fill="#e3e4f2" opacity="0.4"/>
    </g>
    <g id="Objects" transform="translate(58.762 68.947)">
      <g id="Group_677" data-name="Group 677" transform="translate(0 320.091)">
        <g id="Group_676" data-name="Group 676">
          <g id="Group_675" data-name="Group 675">
            <path id="Path_1967" data-name="Path 1967" d="M401.25,453.62c0,.121-108.624.22-180.956.22-72.358,0-161.532-.1-161.532-.22s89.175-.22,161.532-.22C292.626,453.4,401.25,453.5,401.25,453.62Z" transform="translate(-58.762 -453.4)" fill="#14365b"/>
          </g>
        </g>
      </g>
      <g id="Group_678" data-name="Group 678" transform="translate(217.447 0)">
        <path id="Path_1968" data-name="Path 1968" d="M321.045,74.429l-1.711,3.126-3.126,1.711,3.126,1.709,1.711,3.126,1.711-3.126,3.127-1.709-3.127-1.711Z" transform="translate(-316.207 -74.429)" fill="#e4b26d"/>
      </g>
      <g id="Group_679" data-name="Group 679" transform="translate(71.142 80.471)">
        <path id="Path_1969" data-name="Path 1969" d="M147.828,169.7l-1.711,3.126-3.126,1.711,3.126,1.709,1.711,3.126,1.711-3.126,3.127-1.709-3.127-1.711Z" transform="translate(-142.99 -169.702)" fill="#e4b26d"/>
      </g>
      <g id="Group_680" data-name="Group 680" transform="translate(231.783 13.266)">
        <path id="Path_1970" data-name="Path 1970" d="M336.152,90.135,335.1,92.058l-1.919,1.05,1.919,1.051,1.052,1.921,1.053-1.921,1.919-1.051-1.919-1.05Z" transform="translate(-333.181 -90.135)" fill="#e4b26d"/>
      </g>
      <g id="Group_681" data-name="Group 681" transform="translate(63.627 62.489)">
        <path id="Path_1971" data-name="Path 1971" d="M137.064,148.413l-1.052,1.923-1.919,1.05,1.919,1.051,1.052,1.921,1.052-1.921,1.919-1.051-1.919-1.05Z" transform="translate(-134.092 -148.413)" fill="#e4b26d"/>
      </g>
      <g id="Group_1061" data-name="Group 1061" transform="translate(2.513 3.227)">
        <g id="Group_777" data-name="Group 777" transform="translate(83.929)">
          <g id="Group_688" data-name="Group 688">
            <g id="Group_687" data-name="Group 687">
              <g id="Group_686" data-name="Group 686">
                <g id="Group_683" data-name="Group 683">
                  <g id="Group_682" data-name="Group 682">
                    <path id="Path_1972" data-name="Path 1972" d="M274.683,353.352l-93.34-.432A20.332,20.332,0,0,1,161.1,332.5L162.094,98.5A20.332,20.332,0,0,1,182.52,78.25l93.341.431A20.333,20.333,0,0,1,296.1,99.1l-.99,234.007A20.332,20.332,0,0,1,274.683,353.352Z" transform="translate(-161.105 -78.25)" fill="#3a6cd6"/>
                  </g>
                </g>
                <g id="Group_685" data-name="Group 685" transform="translate(6.198 8.076)">
                  <g id="Group_684" data-name="Group 684">
                    <path id="Path_1973" data-name="Path 1973" d="M276.867,88.243l-18.1-.084a4.5,4.5,0,0,0-4.413,4.574l-.015,3.282a4.494,4.494,0,0,1-4.413,4.574l-35.275-.163a4.5,4.5,0,0,1-4.375-4.614l.014-3.282a4.5,4.5,0,0,0-4.375-4.614l-6.365-.03-15.839-.073a14.24,14.24,0,0,0-14.3,14.181L168.443,330.4a14.24,14.24,0,0,0,14.174,14.3l93.154.429a14.239,14.239,0,0,0,14.306-14.179l.965-228.408A14.24,14.24,0,0,0,276.867,88.243Z" transform="translate(-168.443 -87.812)" fill="#fff"/>
                  </g>
                </g>
              </g>
            </g>
          </g>
          <g id="Group_718" data-name="Group 718" transform="translate(27.481 93.884)">
            <g id="Group_701" data-name="Group 701">
              <g id="Group_694" data-name="Group 694" transform="translate(5.979 11.484)">
                <g id="Group_689" data-name="Group 689" transform="translate(0 16.101)">
                  <rect id="Rectangle_305" data-name="Rectangle 305" width="59.993" height="57.788" fill="#5987e4"/>
                </g>
                <g id="Group_690" data-name="Group 690">
                  <path id="Path_1974" data-name="Path 1974" d="M217.263,203,200.72,219.1h59.993L272.183,203Z" transform="translate(-200.72 -203)" fill="#3a6cd6"/>
                </g>
                <g id="Group_691" data-name="Group 691" transform="translate(59.993)">
                  <path id="Path_1975" data-name="Path 1975" d="M271.75,276.889l11.469-16.322V203L271.75,219.1Z" transform="translate(-271.75 -203)" fill="#184bb8"/>
                </g>
                <g id="Group_692" data-name="Group 692" transform="translate(12.981 40.099)">
                  <rect id="Rectangle_306" data-name="Rectangle 306" width="31.321" height="3.551" fill="#184bb8"/>
                </g>
                <g id="Group_693" data-name="Group 693" transform="translate(18.646 46.303)">
                  <rect id="Rectangle_307" data-name="Rectangle 307" width="19.991" height="3.347" fill="#184bb8"/>
                </g>
              </g>
              <g id="Group_700" data-name="Group 700">
                <g id="Group_697" data-name="Group 697">
                  <g id="Group_696" data-name="Group 696">
                    <g id="Group_695" data-name="Group 695">
                      <path id="Path_1976" data-name="Path 1976" d="M211.856,198.583a19.97,19.97,0,0,0-.367-2.175,8.966,8.966,0,0,0-3.283-4.848,8.811,8.811,0,0,0-8.339-1.23,8.816,8.816,0,0,0-4.073,3.067,8.746,8.746,0,0,0,0,10.371,8.818,8.818,0,0,0,4.074,3.068,8.811,8.811,0,0,0,8.339-1.23,8.972,8.972,0,0,0,3.283-4.848,20.009,20.009,0,0,0,.367-2.175,6.94,6.94,0,0,1-.2,2.217,8.955,8.955,0,0,1-3.259,5.059,9.056,9.056,0,0,1-3.844,1.742,9.18,9.18,0,0,1-4.83-.376,9.195,9.195,0,0,1-4.287-3.2,9.152,9.152,0,0,1,0-10.895,9.189,9.189,0,0,1,4.287-3.2,9.176,9.176,0,0,1,4.83-.376,9.075,9.075,0,0,1,7.1,6.8A6.945,6.945,0,0,1,211.856,198.583Z" transform="translate(-193.641 -189.404)" fill="#14365b"/>
                    </g>
                  </g>
                </g>
                <g id="Group_699" data-name="Group 699" transform="translate(5.192 5.852)">
                  <g id="Group_698" data-name="Group 698">
                    <path id="Path_1977" data-name="Path 1977" d="M199.788,198.435c0-1.262.708-2.1,1.748-2.1s1.748.829,1.748,2.1-.72,2.1-1.748,2.1S199.788,199.7,199.788,198.435Zm2.943,0c0-1.008-.476-1.6-1.194-1.6s-1.2.608-1.2,1.6.465,1.6,1.2,1.6S202.731,199.441,202.731,198.435Zm3.5-2.047h.653l-5.288,7.744h-.652Zm-1.693,5.7c0-1.261.719-2.1,1.748-2.1s1.748.841,1.748,2.1-.708,2.1-1.748,2.1S204.534,203.347,204.534,202.086Zm2.943,0c0-1-.465-1.6-1.194-1.6s-1.2.6-1.2,1.6.476,1.6,1.2,1.6S207.477,203.082,207.477,202.086Z" transform="translate(-199.788 -196.333)" fill="#14365b"/>
                  </g>
                </g>
              </g>
            </g>
            <g id="Group_705" data-name="Group 705" transform="translate(49.06 98.315)">
              <g id="Group_702" data-name="Group 702">
                <path id="Path_1978" data-name="Path 1978" d="M259.217,312.439c0,1.665-1.222,3.117-3.907,3.117a6.492,6.492,0,0,1-3.585-1.008l.859-1.666a4.521,4.521,0,0,0,2.672.846c1.088,0,1.759-.456,1.759-1.222,0-.738-.483-1.221-2.188-1.221h-2.4l.483-5.289h5.733v1.744h-3.92l-.148,1.786h.764C258.115,309.526,259.217,310.775,259.217,312.439Z" transform="translate(-251.725 -305.834)" fill="#184bb8"/>
                <path id="Path_1979" data-name="Path 1979" d="M261.644,310.664c0-3.1,1.719-4.86,4.028-4.86s4.027,1.759,4.027,4.86-1.705,4.862-4.027,4.862S261.644,313.766,261.644,310.664Zm5.867,0c0-2.134-.752-3.02-1.839-3.02s-1.826.885-1.826,3.02.752,3.021,1.826,3.021S267.511,312.8,267.511,310.664Z" transform="translate(-253.266 -305.804)" fill="#184bb8"/>
              </g>
              <g id="Group_703" data-name="Group 703" transform="translate(18.902 0.323)">
                <path id="Path_1980" data-name="Path 1980" d="M277.263,308.084a1.86,1.86,0,0,1-1.951,2.06,2.041,2.041,0,0,1-1.06-.263l.328-.65a1.24,1.24,0,0,0,.717.191,1.02,1.02,0,0,0,1.076-1.115,1.3,1.3,0,0,1-.952.345,1.213,1.213,0,0,1-1.317-1.191,1.315,1.315,0,0,1,1.449-1.275C276.613,306.186,277.263,306.848,277.263,308.084Zm-.989-.668c0-.328-.246-.568-.666-.568a.572.572,0,0,0-.64.568.578.578,0,0,0,.651.575A.594.594,0,0,0,276.274,307.416Z" transform="translate(-274.104 -306.186)" fill="#184bb8"/>
                <path id="Path_1981" data-name="Path 1981" d="M281.382,308.084a1.86,1.86,0,0,1-1.951,2.06,2.046,2.046,0,0,1-1.061-.263l.329-.65a1.239,1.239,0,0,0,.716.191,1.02,1.02,0,0,0,1.076-1.115,1.3,1.3,0,0,1-.951.345,1.214,1.214,0,0,1-1.318-1.191,1.316,1.316,0,0,1,1.449-1.275C280.731,306.186,281.382,306.848,281.382,308.084Zm-.99-.668c0-.328-.246-.568-.666-.568a.572.572,0,0,0-.639.568.577.577,0,0,0,.65.575A.594.594,0,0,0,280.392,307.416Z" transform="translate(-274.744 -306.186)" fill="#184bb8"/>
              </g>
              <g id="Group_704" data-name="Group 704" transform="translate(18.793 5.587)">
                <rect id="Rectangle_308" data-name="Rectangle 308" width="6.714" height="0.852" fill="#184bb8"/>
              </g>
            </g>
            <g id="Group_706" data-name="Group 706" transform="translate(1.752 101.231)">
              <rect id="Rectangle_309" data-name="Rectangle 309" width="34.651" height="1.075" fill="#14365b"/>
            </g>
            <g id="Group_707" data-name="Group 707" transform="translate(1.752 104.665)">
              <rect id="Rectangle_310" data-name="Rectangle 310" width="21.033" height="1.075" fill="#14365b"/>
            </g>
            <g id="Group_717" data-name="Group 717" transform="translate(5.739 127.12)">
              <g id="Group_716" data-name="Group 716">
                <g id="Group_715" data-name="Group 715">
                  <g id="Group_710" data-name="Group 710">
                    <g id="Group_709" data-name="Group 709">
                      <g id="Group_708" data-name="Group 708">
                        <path id="Path_1982" data-name="Path 1982" d="M271,361.824l-69.27-.319c-.717,0-1.295-.784-1.291-1.744l.077-18.122c0-.96.588-1.735,1.306-1.732l69.269.32c.718,0,1.3.784,1.291,1.744l-.076,18.121C272.3,361.052,271.714,361.829,271,361.824Z" transform="translate(-200.436 -339.908)" fill="#5987e4"/>
                      </g>
                    </g>
                  </g>
                  <g id="Group_714" data-name="Group 714" transform="translate(28.758 7.774)">
                    <g id="Group_711" data-name="Group 711">
                      <path id="Path_1983" data-name="Path 1983" d="M238.83,353.108c0,.922-.659,1.445-1.958,1.439l-2.389-.011.023-5.424,2.241.01c1.157.005,1.823.519,1.819,1.4a1.26,1.26,0,0,1-.8,1.228A1.281,1.281,0,0,1,238.83,353.108Zm-.549-.049c0-.706-.492-1.019-1.405-1.023l-1.832-.008-.008,2.039,1.832.008C237.781,354.079,238.279,353.772,238.281,353.059Zm-3.227-3.472-.008,1.969,1.655.008c.831,0,1.314-.328,1.318-.978s-.478-.987-1.309-.991Z" transform="translate(-234.484 -349.112)" fill="#fff"/>
                    </g>
                    <g id="Group_712" data-name="Group 712" transform="translate(5.559 0.025)">
                      <path id="Path_1984" data-name="Path 1984" d="M241.066,352.249l.014-3.107.548,0-.013,3.084c-.006,1.287.571,1.878,1.58,1.884s1.6-.581,1.6-1.868l.013-3.084.534,0-.013,3.107c-.007,1.557-.812,2.359-2.139,2.353S241.06,353.807,241.066,352.249Z" transform="translate(-241.066 -349.142)" fill="#fff"/>
                    </g>
                    <g id="Group_713" data-name="Group 713" transform="translate(10.581 0.049)">
                      <path id="Path_1985" data-name="Path 1985" d="M249.615,352.731l-.008,1.875-.541,0,.008-1.875-2.062-3.558.585,0,1.768,3.053,1.794-3.037.549,0Z" transform="translate(-247.011 -349.17)" fill="#fff"/>
                    </g>
                  </g>
                </g>
              </g>
            </g>
          </g>
          <g id="Group_776" data-name="Group 776" transform="translate(20.296 47.64)">
            <g id="Group_737" data-name="Group 737" transform="translate(0 6.907)">
              <g id="Group_720" data-name="Group 720" transform="translate(0 4.687)">
                <g id="Group_719" data-name="Group 719">
                  <rect id="Rectangle_311" data-name="Rectangle 311" width="26.189" height="13.37" fill="#e4b26d"/>
                </g>
              </g>
              <g id="Group_722" data-name="Group 722" transform="translate(0 0.001)">
                <g id="Group_721" data-name="Group 721">
                  <path id="Path_1986" data-name="Path 1986" d="M190.786,142.831l-5.651,4.686h26.189l3.859-4.686Z" transform="translate(-185.135 -142.831)" fill="#e4b26d"/>
                </g>
              </g>
              <g id="Group_724" data-name="Group 724" transform="translate(26.189 0.001)">
                <g id="Group_723" data-name="Group 723">
                  <path id="Path_1987" data-name="Path 1987" d="M216.141,160.888l3.859-5.1V142.831l-3.859,4.686Z" transform="translate(-216.141 -142.831)" fill="#e4b26d"/>
                </g>
              </g>
              <g id="Group_726" data-name="Group 726" transform="translate(3.876 9.029)">
                <g id="Group_725" data-name="Group 725">
                  <rect id="Rectangle_312" data-name="Rectangle 312" width="17.85" height="1.376" fill="#14365b"/>
                </g>
              </g>
              <g id="Group_728" data-name="Group 728" transform="translate(7.409 11.521)">
                <g id="Group_727" data-name="Group 727">
                  <rect id="Rectangle_313" data-name="Rectangle 313" width="11.085" height="1.376" fill="#14365b"/>
                </g>
              </g>
              <g id="Group_730" data-name="Group 730" transform="translate(7.409 25.262)">
                <g id="Group_729" data-name="Group 729">
                  <rect id="Rectangle_314" data-name="Rectangle 314" width="11.93" height="1.821" fill="#14365b"/>
                </g>
              </g>
              <g id="Group_733" data-name="Group 733" transform="translate(0)">
                <g id="Group_732" data-name="Group 732">
                  <g id="Group_731" data-name="Group 731">
                    <path id="Path_1988" data-name="Path 1988" d="M185.135,147.518a6.842,6.842,0,0,1,1.268-.088l3.456-.072c2.919-.041,6.951-.066,11.405-.066l10.06.05-.135.064c1.165-1.366,2.135-2.5,2.876-3.372a10.017,10.017,0,0,1,1.119-1.2,10.17,10.17,0,0,1-.967,1.329l-2.757,3.469-.051.063h-.085l-10.06.049c-4.454,0-8.486-.024-11.405-.066l-3.456-.071A6.841,6.841,0,0,1,185.135,147.518Z" transform="translate(-185.135 -142.83)" fill="#14365b"/>
                  </g>
                </g>
              </g>
              <g id="Group_736" data-name="Group 736" transform="translate(25.963 4.688)">
                <g id="Group_735" data-name="Group 735">
                  <g id="Group_734" data-name="Group 734">
                    <path id="Path_1989" data-name="Path 1989" d="M216.1,161.75a49.8,49.8,0,0,1-.226-6.684,49.812,49.812,0,0,1,.226-6.685,49.812,49.812,0,0,1,.226,6.685A49.8,49.8,0,0,1,216.1,161.75Z" transform="translate(-215.874 -148.38)" fill="#14365b"/>
                  </g>
                </g>
              </g>
            </g>
            <g id="Group_756" data-name="Group 756" transform="translate(40.902)">
              <g id="Group_739" data-name="Group 739" transform="translate(0 4.259)">
                <g id="Group_738" data-name="Group 738">
                  <rect id="Rectangle_315" data-name="Rectangle 315" width="18.779" height="20.705" fill="#184bb8"/>
                </g>
              </g>
              <g id="Group_741" data-name="Group 741" transform="translate(0 0.002)">
                <g id="Group_740" data-name="Group 740">
                  <path id="Path_1990" data-name="Path 1990" d="M239.1,134.654l-5.543,4.258h18.779l3.859-4.258Z" transform="translate(-233.561 -134.654)" fill="#184bb8"/>
                </g>
              </g>
              <g id="Group_743" data-name="Group 743" transform="translate(18.78 0.002)">
                <g id="Group_742" data-name="Group 742">
                  <path id="Path_1991" data-name="Path 1991" d="M255.8,159.617l3.859-5.1V134.654l-3.859,4.258Z" transform="translate(-255.795 -134.654)" fill="#184bb8"/>
                </g>
              </g>
              <g id="Group_745" data-name="Group 745" transform="translate(4.072 12.627)">
                <g id="Group_744" data-name="Group 744">
                  <rect id="Rectangle_316" data-name="Rectangle 316" width="9.498" height="1.376" fill="#3a6cd6"/>
                </g>
              </g>
              <g id="Group_747" data-name="Group 747" transform="translate(5.952 15.119)">
                <g id="Group_746" data-name="Group 746">
                  <rect id="Rectangle_317" data-name="Rectangle 317" width="5.898" height="1.376" fill="#3a6cd6"/>
                </g>
              </g>
              <g id="Group_749" data-name="Group 749" transform="translate(3.86 32.169)">
                <g id="Group_748" data-name="Group 748">
                  <rect id="Rectangle_318" data-name="Rectangle 318" width="11.93" height="1.821" fill="#14365b"/>
                </g>
              </g>
              <g id="Group_752" data-name="Group 752">
                <g id="Group_751" data-name="Group 751">
                  <g id="Group_750" data-name="Group 750">
                    <path id="Path_1992" data-name="Path 1992" d="M233.561,138.912a4.037,4.037,0,0,1,.965-.087l2.628-.072c2.219-.041,5.285-.066,8.671-.066l6.516.035-.141.063c1.177-1.269,2.162-2.314,2.861-3.036a8.394,8.394,0,0,1,1.14-1.094,8.29,8.29,0,0,1-.976,1.242c-.65.765-1.595,1.849-2.742,3.144l-.055.063h-.087l-6.516.035c-3.386,0-6.452-.025-8.671-.066L234.526,139A4,4,0,0,1,233.561,138.912Z" transform="translate(-233.561 -134.653)" fill="#14365b"/>
                  </g>
                </g>
              </g>
              <g id="Group_755" data-name="Group 755" transform="translate(18.555 4.259)">
                <g id="Group_754" data-name="Group 754">
                  <g id="Group_753" data-name="Group 753">
                    <path id="Path_1993" data-name="Path 1993" d="M255.755,160.4c-.125,0-.225-4.635-.225-10.352s.1-10.353.225-10.353.225,4.634.225,10.353S255.879,160.4,255.755,160.4Z" transform="translate(-255.529 -139.695)" fill="#14365b"/>
                  </g>
                </g>
              </g>
            </g>
            <g id="Group_775" data-name="Group 775" transform="translate(75.456 9.25)">
              <g id="Group_758" data-name="Group 758" transform="translate(0 2.681)">
                <g id="Group_757" data-name="Group 757">
                  <rect id="Rectangle_319" data-name="Rectangle 319" width="16.515" height="13.033" fill="#5987e4"/>
                </g>
              </g>
              <g id="Group_760" data-name="Group 760" transform="translate(0 0.001)">
                <g id="Group_759" data-name="Group 759">
                  <path id="Path_1994" data-name="Path 1994" d="M277.96,145.605l-3.489,2.68h16.515l2.429-2.68Z" transform="translate(-274.471 -145.605)" fill="#3a6cd6"/>
                </g>
              </g>
              <g id="Group_762" data-name="Group 762" transform="translate(16.516 0.001)">
                <g id="Group_761" data-name="Group 761">
                  <path id="Path_1995" data-name="Path 1995" d="M294.025,161.319l2.429-3.21v-12.5l-2.429,2.68Z" transform="translate(-294.025 -145.605)" fill="#3a6cd6"/>
                </g>
              </g>
              <g id="Group_764" data-name="Group 764" transform="translate(4.68 7.658)">
                <g id="Group_763" data-name="Group 763">
                  <rect id="Rectangle_320" data-name="Rectangle 320" width="7.562" height="1.012" fill="#14365b"/>
                </g>
              </g>
              <g id="Group_766" data-name="Group 766" transform="translate(6.177 9.491)">
                <g id="Group_765" data-name="Group 765">
                  <rect id="Rectangle_321" data-name="Rectangle 321" width="4.696" height="1.012" fill="#14365b"/>
                </g>
              </g>
              <g id="Group_768" data-name="Group 768" transform="translate(2.56 22.919)">
                <g id="Group_767" data-name="Group 767">
                  <rect id="Rectangle_322" data-name="Rectangle 322" width="11.93" height="1.821" fill="#14365b"/>
                </g>
              </g>
              <g id="Group_771" data-name="Group 771">
                <g id="Group_770" data-name="Group 770">
                  <g id="Group_769" data-name="Group 769">
                    <path id="Path_1996" data-name="Path 1996" d="M274.471,148.286a19.034,19.034,0,0,1,2.949-.16c1.822-.041,4.338-.066,7.118-.066,2.468,0,4.728.019,6.45.053l-.128.056c.763-.809,1.389-1.462,1.831-1.906a3.7,3.7,0,0,1,.726-.657,3.728,3.728,0,0,1-.583.786c-.4.484-.987,1.172-1.719,2.009l-.048.055-.079,0c-1.721.033-3.982.052-6.45.052-2.78,0-5.3-.024-7.118-.066A19.257,19.257,0,0,1,274.471,148.286Z" transform="translate(-274.471 -145.604)" fill="#14365b"/>
                  </g>
                </g>
              </g>
              <g id="Group_774" data-name="Group 774" transform="translate(16.29 2.682)">
                <g id="Group_773" data-name="Group 773">
                  <g id="Group_772" data-name="Group 772">
                    <path id="Path_1997" data-name="Path 1997" d="M293.984,161.812a47.183,47.183,0,0,1-.226-6.516,47.173,47.173,0,0,1,.226-6.516,47.423,47.423,0,0,1,.225,6.516A47.433,47.433,0,0,1,293.984,161.812Z" transform="translate(-293.758 -148.779)" fill="#14365b"/>
                  </g>
                </g>
              </g>
            </g>
          </g>
        </g>
        <g id="Group_801" data-name="Group 801" transform="translate(0 183.128)">
          <g id="Group_780" data-name="Group 780">
            <g id="Group_779" data-name="Group 779">
              <g id="Group_778" data-name="Group 778">
                <path id="Path_1998" data-name="Path 1998" d="M122.111,394.659c14.436-10.087,17.712-28.808,17.141-45.636-.1-2.809.214-5.771-1.123-8.235s-4.455-4.149-6.97-2.965c-2.086.982-3,3.409-4.162,5.416a16.436,16.436,0,0,1-6.588,6.293c-1.789.928-4,1.5-5.768.522-2.423-1.337-2.709-4.684-2.691-7.479q.049-7.811.1-15.621a26.03,26.03,0,0,0-.843-8.3c-.869-2.651-2.789-5.114-5.446-5.859s-5.945.788-6.506,3.523a25.777,25.777,0,0,0-.079,3.478,2.938,2.938,0,0,1-1.72,2.766c-1.115.328-2.233-.465-3.068-1.282-2.884-2.82-4.841-6.455-6.67-10.069s-3.6-7.314-6.22-10.391-6.236-5.515-10.237-5.742-8.265,2.243-9.276,6.172,1.284,7.934,3.785,11.123A62.346,62.346,0,0,0,78.752,324.75a5.133,5.133,0,0,1,2.172,2.335c.606,1.863-1.159,3.713-3,4.325-2.082.693-4.342.477-6.521.733s-4.538,1.218-5.363,3.276c-1.144,2.856,1.244,5.849,3.594,7.809a53.425,53.425,0,0,0,15.811,9.127c2.055.752,4.218,1.412,5.875,2.856s2.657,3.955,1.656,5.923-3.572,2.6-5.725,2.2-4.08-1.568-6.131-2.341c-3.839-1.449-8.8-1.185-11.257,2.134a8.843,8.843,0,0,0-.941,7.818,20.377,20.377,0,0,0,4.236,6.9A53.716,53.716,0,0,0,96.1,393.971c8.906,3.089,17.159,3.924,26.01.688" transform="translate(-61.738 -295.064)" fill="#e4b26d"/>
              </g>
            </g>
          </g>
          <g id="Group_784" data-name="Group 784" transform="translate(4.281 2.353)">
            <g id="Group_783" data-name="Group 783">
              <g id="Group_782" data-name="Group 782">
                <g id="Group_781" data-name="Group 781">
                  <path id="Path_1999" data-name="Path 1999" d="M66.807,297.851a2.074,2.074,0,0,0,.271.265l.829.74c.732.646,1.811,1.6,3.167,2.868a104.826,104.826,0,0,1,10.671,11.518c2.079,2.59,4.239,5.521,6.5,8.71s4.647,6.624,7.024,10.323a126.233,126.233,0,0,1,6.893,11.941c1.077,2.135,2.037,4.37,3.017,6.649l2.965,6.929a256.647,256.647,0,0,1,9.957,26.885,124.86,124.86,0,0,1,4.656,22.925,91.408,91.408,0,0,1,.262,15.78c-.146,1.86-.289,3.3-.42,4.277-.054.467-.1.835-.129,1.111a2.2,2.2,0,0,0-.027.383,2.052,2.052,0,0,0,.079-.374c.044-.274.1-.64.18-1.1.164-.97.34-2.412.516-4.276a87.258,87.258,0,0,0-.1-15.832,122.609,122.609,0,0,0-4.564-23.026,250.277,250.277,0,0,0-9.938-26.953l-2.967-6.931c-.98-2.272-1.95-4.526-3.036-6.673a125.036,125.036,0,0,0-6.947-11.972c-2.394-3.7-4.8-7.127-7.074-10.313s-4.463-6.109-6.566-8.691a99.111,99.111,0,0,0-10.819-11.435c-1.378-1.246-2.479-2.177-3.233-2.8l-.862-.7A2.029,2.029,0,0,0,66.807,297.851Z" transform="translate(-66.807 -297.851)" fill="#14365b"/>
                </g>
              </g>
            </g>
          </g>
          <g id="Group_788" data-name="Group 788" transform="translate(39.926 17.73)">
            <g id="Group_787" data-name="Group 787">
              <g id="Group_786" data-name="Group 786">
                <g id="Group_785" data-name="Group 785">
                  <path id="Path_2000" data-name="Path 2000" d="M109.023,346.794a5.71,5.71,0,0,0,.273-1.192c.147-.773.322-1.9.519-3.287.4-2.782.809-6.642,1.25-10.9s.909-8.1,1.346-10.87c.214-1.384.4-2.5.536-3.275a5.591,5.591,0,0,0,.156-1.213,5.564,5.564,0,0,0-.351,1.171c-.2.761-.438,1.873-.7,3.254-.53,2.762-1.057,6.615-1.5,10.879l-1.1,10.909c-.14,1.311-.26,2.417-.356,3.3A5.575,5.575,0,0,0,109.023,346.794Z" transform="translate(-109.008 -316.056)" fill="#14365b"/>
                </g>
              </g>
            </g>
          </g>
          <g id="Group_792" data-name="Group 792" transform="translate(4.021 41.718)">
            <g id="Group_791" data-name="Group 791">
              <g id="Group_790" data-name="Group 790">
                <g id="Group_789" data-name="Group 789">
                  <path id="Path_2001" data-name="Path 2001" d="M66.5,344.493a7.809,7.809,0,0,0,1.432.171c.922.082,2.256.193,3.9.384,3.291.355,7.818,1,12.782,1.94s9.418,1.99,12.619,2.84c1.6.414,2.894.783,3.786,1.033a7.7,7.7,0,0,0,1.4.345,7.655,7.655,0,0,0-1.343-.538c-.876-.309-2.152-.733-3.748-1.194-3.185-.943-7.643-2.049-12.621-3a126.682,126.682,0,0,0-12.841-1.795c-1.654-.144-3-.2-3.924-.22A7.621,7.621,0,0,0,66.5,344.493Z" transform="translate(-66.498 -344.456)" fill="#14365b"/>
                </g>
              </g>
            </g>
          </g>
          <g id="Group_796" data-name="Group 796" transform="translate(55.585 42.507)">
            <g id="Group_795" data-name="Group 795">
              <g id="Group_794" data-name="Group 794">
                <g id="Group_793" data-name="Group 793">
                  <path id="Path_2002" data-name="Path 2002" d="M127.55,391.267a1.835,1.835,0,0,0,.246-.438l.615-1.3c.528-1.131,1.25-2.787,2.115-4.845,1.733-4.115,3.948-9.875,6.307-16.263s4.518-12.164,6.162-16.308c.806-2.015,1.47-3.672,1.962-4.9.211-.535.384-.976.527-1.338a1.855,1.855,0,0,0,.151-.481,1.86,1.86,0,0,0-.247.439c-.166.351-.368.779-.614,1.3-.529,1.131-1.25,2.787-2.116,4.846-1.733,4.114-3.948,9.874-6.307,16.265s-4.517,12.161-6.162,16.306c-.807,2.014-1.47,3.672-1.962,4.9-.211.535-.384.976-.527,1.338A1.833,1.833,0,0,0,127.55,391.267Z" transform="translate(-127.547 -345.39)" fill="#14365b"/>
                </g>
              </g>
            </g>
          </g>
          <g id="Group_800" data-name="Group 800" transform="translate(7.855 72.995)">
            <g id="Group_799" data-name="Group 799">
              <g id="Group_798" data-name="Group 798">
                <g id="Group_797" data-name="Group 797">
                  <path id="Path_2003" data-name="Path 2003" d="M71.038,381.491a1.908,1.908,0,0,0,.474.2l1.386.464,5.112,1.657c4.316,1.4,10.254,3.4,16.813,5.621s12.523,4.171,16.87,5.482c2.172.656,3.936,1.169,5.162,1.5l1.414.372a1.846,1.846,0,0,0,.5.095,1.948,1.948,0,0,0-.474-.2l-1.386-.464-5.111-1.656c-4.315-1.4-10.255-3.4-16.816-5.623s-12.521-4.17-16.867-5.48c-2.172-.656-3.936-1.17-5.162-1.5-.567-.149-1.033-.272-1.414-.371A1.9,1.9,0,0,0,71.038,381.491Z" transform="translate(-71.038 -381.487)" fill="#14365b"/>
                </g>
              </g>
            </g>
          </g>
        </g>
        <g id="Group_1060" data-name="Group 1060" transform="translate(189.181 72.2)">
          <g id="Group_836" data-name="Group 836" transform="translate(106.286 189.326)">
            <g id="Group_805" data-name="Group 805">
              <g id="Group_804" data-name="Group 804">
                <g id="Group_803" data-name="Group 803">
                  <g id="Group_802" data-name="Group 802">
                    <path id="Path_2004" data-name="Path 2004" d="M417.745,404.4l-6.189-4.866,9.04-11.65,9.128,7.023-.514.758c-2.317,3.353-12.012,16.886-14.333,18.53C412.293,416.026,417.745,404.4,417.745,404.4Z" transform="translate(-411.556 -387.882)" fill="#3a6cd6"/>
                  </g>
                </g>
              </g>
            </g>
            <g id="Group_810" data-name="Group 810" transform="translate(2.538 6.772)">
              <g id="Group_809" data-name="Group 809">
                <g id="Group_808" data-name="Group 808">
                  <g id="Group_807" data-name="Group 807">
                    <g id="Group_806" data-name="Group 806">
                      <path id="Path_2005" data-name="Path 2005" d="M414.564,415.268c-.11-.086,3.211-4.493,7.416-9.84s7.7-9.614,7.813-9.527-3.21,4.49-7.417,9.839S414.672,415.353,414.564,415.268Z" transform="translate(-414.561 -395.899)" fill="#184bb8"/>
                    </g>
                  </g>
                </g>
              </g>
            </g>
            <g id="Group_815" data-name="Group 815" transform="translate(5.493 17.394)">
              <g id="Group_814" data-name="Group 814">
                <g id="Group_813" data-name="Group 813">
                  <g id="Group_812" data-name="Group 812">
                    <g id="Group_811" data-name="Group 811">
                      <path id="Path_2006" data-name="Path 2006" d="M419.857,408.794c-.023.139-.423.189-.9.186s-.877-.064-.9-.2.382-.307.9-.3S419.88,408.658,419.857,408.794Z" transform="translate(-418.059 -408.476)" fill="#184bb8"/>
                    </g>
                  </g>
                </g>
              </g>
            </g>
            <g id="Group_820" data-name="Group 820" transform="translate(5.151 18.302)">
              <g id="Group_819" data-name="Group 819">
                <g id="Group_818" data-name="Group 818">
                  <g id="Group_817" data-name="Group 817">
                    <g id="Group_816" data-name="Group 816">
                      <path id="Path_2007" data-name="Path 2007" d="M419.62,410.021c-.04.136-.484.122-1.008.053s-.955-.177-.958-.318.46-.259,1.025-.182S419.66,409.89,419.62,410.021Z" transform="translate(-417.654 -409.551)" fill="#184bb8"/>
                    </g>
                  </g>
                </g>
              </g>
            </g>
            <g id="Group_825" data-name="Group 825" transform="translate(14.274 5.342)">
              <g id="Group_824" data-name="Group 824">
                <g id="Group_823" data-name="Group 823">
                  <g id="Group_822" data-name="Group 822">
                    <g id="Group_821" data-name="Group 821">
                      <path id="Path_2008" data-name="Path 2008" d="M429.164,399.1c-.067.019-.212-.246-.378-.7a5.17,5.17,0,0,1-.328-1.9,2.973,2.973,0,0,1,.684-1.847c.349-.389.671-.48.7-.426s-.186.255-.414.639a3.524,3.524,0,0,0-.466,1.655,9.374,9.374,0,0,0,.169,1.791C429.206,398.775,429.232,399.078,429.164,399.1Z" transform="translate(-428.455 -394.206)" fill="#184bb8"/>
                    </g>
                  </g>
                </g>
              </g>
            </g>
            <g id="Group_830" data-name="Group 830" transform="translate(6.093 15.991)">
              <g id="Group_829" data-name="Group 829">
                <g id="Group_828" data-name="Group 828">
                  <g id="Group_827" data-name="Group 827">
                    <g id="Group_826" data-name="Group 826">
                      <path id="Path_2009" data-name="Path 2009" d="M418.777,407.657c-.052-.131.2-.354.532-.565s.642-.345.738-.243-.091.431-.467.669S418.827,407.784,418.777,407.657Z" transform="translate(-418.77 -406.814)" fill="#184bb8"/>
                    </g>
                  </g>
                </g>
              </g>
            </g>
            <g id="Group_835" data-name="Group 835" transform="translate(5.614 14.796)">
              <g id="Group_834" data-name="Group 834">
                <g id="Group_833" data-name="Group 833">
                  <g id="Group_832" data-name="Group 832">
                    <g id="Group_831" data-name="Group 831">
                      <path id="Path_2010" data-name="Path 2010" d="M418.233,406.784c-.1-.1.058-.473.357-.843s.635-.606.75-.527-.045.457-.357.844S418.335,406.881,418.233,406.784Z" transform="translate(-418.203 -405.399)" fill="#184bb8"/>
                    </g>
                  </g>
                </g>
              </g>
            </g>
          </g>
          <g id="Group_845" data-name="Group 845" transform="translate(55.262 105.739)">
            <g id="Group_838" data-name="Group 838">
              <g id="Group_837" data-name="Group 837">
                <path id="Path_2011" data-name="Path 2011" d="M367.354,288.92s-18.465,49.065-15.978,58.231,52.289,45.564,52.289,45.564l13.52-19.459s-38.843-30.741-38.965-32.439,15.42-42.46,15.42-42.46Z" transform="translate(-351.146 -288.92)" fill="#191d50"/>
              </g>
            </g>
            <g id="Group_841" data-name="Group 841" transform="translate(9.703 32.307)">
              <g id="Group_840" data-name="Group 840">
                <g id="Group_839" data-name="Group 839">
                  <path id="Path_2012" data-name="Path 2012" d="M404.6,383.694a.666.666,0,0,1-.176-.1l-.487-.321-1.851-1.268c-1.595-1.118-3.895-2.748-6.693-4.821-5.6-4.136-13.212-10.042-21.287-16.955-2.022-1.725-3.977-3.433-5.852-5.1l-2.751-2.459a10.4,10.4,0,0,1-2.373-2.693,4.948,4.948,0,0,1-.349-3.409c.216-1.084.49-2.1.749-3.1.531-1.98,1.062-3.812,1.546-5.484l2.3-7.918q.38-1.362.6-2.158c.063-.225.115-.409.157-.562a.654.654,0,0,1,.069-.187.666.666,0,0,1-.024.2l-.114.573c-.109.5-.283,1.237-.522,2.182-.479,1.889-1.229,4.606-2.163,7.959-.465,1.677-.976,3.514-1.491,5.493-.25.988-.518,2.017-.721,3.074a4.548,4.548,0,0,0,.326,3.142,10.067,10.067,0,0,0,2.295,2.567l2.756,2.449c1.878,1.656,3.832,3.36,5.852,5.084,8.067,6.906,15.634,12.843,21.185,17.042l6.6,4.933,1.8,1.337.462.356C404.552,383.642,404.6,383.687,404.6,383.694Z" transform="translate(-362.634 -327.17)" fill="#3a6cd6"/>
                </g>
              </g>
            </g>
            <g id="Group_844" data-name="Group 844" transform="translate(47.155 79.218)">
              <g id="Group_843" data-name="Group 843">
                <g id="Group_842" data-name="Group 842">
                  <path id="Path_2013" data-name="Path 2013" d="M406.979,398.25c-.1-.075,2.467-3.615,5.731-7.906s5.991-7.709,6.091-7.634-2.467,3.614-5.732,7.907S407.077,398.326,406.979,398.25Z" transform="translate(-406.976 -382.71)" fill="#3a6cd6"/>
                </g>
              </g>
            </g>
          </g>
          <g id="Group_847" data-name="Group 847" transform="translate(95.483 12.436)">
            <g id="Group_846" data-name="Group 846">
              <path id="Path_2014" data-name="Path 2014" d="M407.365,178.454c1.646,3.3,2.517,6.157,5.79,7.858,1.474.767,3.272,1.2,4.161,2.607.968,1.529.512,3.743,1.735,5.076,1.779,1.938,5.414.367,7.411,2.08,1.782,1.529,1.209,4.809,3.131,6.157,1.081.758,2.555.589,3.786,1.066,2.018.781,2.974,3.11,3.239,5.257a9.176,9.176,0,0,1-.635,5.087,5.2,5.2,0,0,1-3.952,3.02c-2.29.241-4.883-1.339-6.736.026a9.124,9.124,0,0,0-1.545,1.888,5.778,5.778,0,0,1-9.495-.6c-1.279-2.13-1.2-5.069-3.069-6.7a10.923,10.923,0,0,0-3.52-1.614,4.283,4.283,0,0,1-2.84-2.457,10.817,10.817,0,0,0-1.761-3.031c-.937-1.4-2.184.311-3.422-.379s-.769-2.039-.872-3.453" transform="translate(-398.765 -178.454)" fill="#212667"/>
            </g>
          </g>
          <g id="Group_851" data-name="Group 851" transform="translate(7.356 54.763)">
            <g id="Group_850" data-name="Group 850">
              <g id="Group_849" data-name="Group 849">
                <g id="Group_848" data-name="Group 848">
                  <path id="Path_2015" data-name="Path 2015" d="M369.405,233.9l-15.96-5.337s-7.053,20.32-9.216,20.517c-11.977,1.092-24.792-2.879-29.284-4.449-.457-.512-.977-1.127-1.557-1.88a7.17,7.17,0,0,1-1.127-2.151,10.959,10.959,0,0,1-.642-2.96A.939.939,0,0,0,310,236.9c-.519.67-.651,3.237.531,6s-3,.565-4.542-.209-6.413-2.941-7.026-2.656c-.9.418-.616,1.458.94,2.194,1.574.745,6.063,3.272,5.615,4.066s-8.222-3.261-8.222-3.261-1.524-1.133-2.071-.234c-.987,1.623,7.6,5.31,8.428,5.641.573.23.118,1.109-.485.829-.621-.288-7.668-4.213-8.69-2.57-.784,1.259,7.037,3.1,8.047,4.725s-5.789-2-6.488-.764c-.26.46-.391.839,3.814,2.356a89.261,89.261,0,0,0,9.371,2.393l-.015.043s42,18.784,51.062.677C369.887,236.919,369.405,233.9,369.405,233.9Z" transform="translate(-294.428 -228.567)" fill="#e5baab"/>
                </g>
              </g>
            </g>
          </g>
          <g id="Group_872" data-name="Group 872" transform="translate(57.141 43.277)">
            <g id="Group_855" data-name="Group 855">
              <g id="Group_854" data-name="Group 854">
                <g id="Group_853" data-name="Group 853">
                  <g id="Group_852" data-name="Group 852">
                    <path id="Path_2016" data-name="Path 2016" d="M394.343,214.968h0l6.972.126,5.537,15.867-4.51,18.182c-1.318,5.312,4.663,15.937,4.51,21.8l-39.106,6.334-.824-26.114-.019-.875-13.533-6.753,4.466-10.94c6.87-16.1,18.869-17.075,18.869-17.075Z" transform="translate(-353.371 -214.968)" fill="#88b7fc"/>
                  </g>
                </g>
              </g>
            </g>
            <g id="Group_866" data-name="Group 866" transform="translate(10.177 14.08)">
              <g id="Group_865" data-name="Group 865">
                <g id="Group_864" data-name="Group 864">
                  <g id="Group_863" data-name="Group 863">
                    <g id="Group_862" data-name="Group 862">
                      <path id="Path_2019" data-name="Path 2019" d="M369.01,252.683a2.38,2.38,0,0,1-.84-.443,6.775,6.775,0,0,1-1.808-1.864,5.955,5.955,0,0,1-.921-3.734,8.266,8.266,0,0,1,1.519-4.46,8.165,8.165,0,0,1,2.774-2.479l-.119.163c.324-2.4.617-4.459.842-5.917a14.745,14.745,0,0,1,.432-2.31,14.975,14.975,0,0,1-.166,2.347c-.151,1.469-.389,3.537-.682,5.94l-.013.1-.106.059a8.088,8.088,0,0,0-4.066,6.579,5.765,5.765,0,0,0,.777,3.541,7.425,7.425,0,0,0,1.644,1.892C368.739,252.479,369.025,252.654,369.01,252.683Z" transform="translate(-365.42 -231.638)" fill="#88b7fc"/>
                    </g>
                  </g>
                </g>
              </g>
            </g>
            <g id="Group_871" data-name="Group 871" transform="translate(13.895 14.815)">
              <g id="Group_870" data-name="Group 870">
                <g id="Group_869" data-name="Group 869">
                  <g id="Group_868" data-name="Group 868">
                    <g id="Group_867" data-name="Group 867">
                      <path id="Path_2020" data-name="Path 2020" d="M371.169,235.2c-.111.054-.5-.5-.861-1.246s-.568-1.389-.456-1.444.5.5.861,1.247S371.281,235.148,371.169,235.2Z" transform="translate(-369.822 -232.509)" fill="#88b7fc"/>
                    </g>
                  </g>
                </g>
              </g>
            </g>
          </g>
          <g id="Group_876" data-name="Group 876" transform="translate(77.866 7.757)">
            <g id="Group_875" data-name="Group 875">
              <g id="Group_874" data-name="Group 874">
                <g id="Group_873" data-name="Group 873">
                  <path id="Path_2021" data-name="Path 2021" d="M397.686,208.663l1.2-27.482-10.913-8.267-9.92,4.85s-.331,12.456,0,17.857,5.776,5.977,5.776,5.977-.127,3.166-.252,6.492a7.059,7.059,0,0,0,7.12,7.323h0A7.06,7.06,0,0,0,397.686,208.663Z" transform="translate(-377.908 -172.914)" fill="#e5baab"/>
                </g>
              </g>
            </g>
          </g>
          <g id="Group_886" data-name="Group 886" transform="translate(78.412 20.095)">
            <g id="Group_880" data-name="Group 880" transform="translate(0.681 0.9)">
              <g id="Group_879" data-name="Group 879">
                <g id="Group_878" data-name="Group 878">
                  <g id="Group_877" data-name="Group 877">
                    <path id="Path_2022" data-name="Path 2022" d="M379.36,189.278a.692.692,0,1,0,.693-.691A.692.692,0,0,0,379.36,189.278Z" transform="translate(-379.36 -188.587)" fill="#14365b"/>
                  </g>
                </g>
              </g>
            </g>
            <g id="Group_885" data-name="Group 885">
              <g id="Group_884" data-name="Group 884">
                <g id="Group_883" data-name="Group 883">
                  <g id="Group_882" data-name="Group 882">
                    <g id="Group_881" data-name="Group 881">
                      <path id="Path_2023" data-name="Path 2023" d="M378.566,188.359c.09.09.6-.345,1.345-.384s1.3.318,1.38.218c.038-.044-.054-.209-.3-.377a1.837,1.837,0,0,0-2.175.133C378.595,188.145,378.523,188.32,378.566,188.359Z" transform="translate(-378.554 -187.522)" fill="#14365b"/>
                    </g>
                  </g>
                </g>
              </g>
            </g>
          </g>
          <g id="Group_896" data-name="Group 896" transform="translate(86.663 20.095)">
            <g id="Group_890" data-name="Group 890" transform="translate(0.442 0.9)">
              <g id="Group_889" data-name="Group 889">
                <g id="Group_888" data-name="Group 888">
                  <g id="Group_887" data-name="Group 887">
                    <path id="Path_2024" data-name="Path 2024" d="M388.846,189.278a.691.691,0,1,0,.691-.691A.691.691,0,0,0,388.846,189.278Z" transform="translate(-388.846 -188.587)" fill="#14365b"/>
                  </g>
                </g>
              </g>
            </g>
            <g id="Group_895" data-name="Group 895">
              <g id="Group_894" data-name="Group 894">
                <g id="Group_893" data-name="Group 893">
                  <g id="Group_892" data-name="Group 892">
                    <g id="Group_891" data-name="Group 891">
                      <path id="Path_2025" data-name="Path 2025" d="M388.335,188.359c.09.09.6-.345,1.344-.384s1.3.318,1.381.218c.038-.044-.055-.209-.3-.377a1.837,1.837,0,0,0-2.175.133C388.363,188.145,388.291,188.32,388.335,188.359Z" transform="translate(-388.323 -187.522)" fill="#14365b"/>
                    </g>
                  </g>
                </g>
              </g>
            </g>
          </g>
          <g id="Group_904" data-name="Group 904" transform="translate(83.786 34.025)">
            <g id="Group_903" data-name="Group 903">
              <g id="Group_902" data-name="Group 902">
                <g id="Group_901" data-name="Group 901">
                  <path id="Path_2027" data-name="Path 2027" d="M384.917,206.43a13.487,13.487,0,0,0,7.157-2.416s-1.622,3.966-7.038,3.742Z" transform="translate(-384.917 -204.014)" fill="#d78776"/>
                </g>
              </g>
            </g>
          </g>
          <g id="Group_908" data-name="Group 908" transform="translate(75.656 4.13)">
            <g id="Group_907" data-name="Group 907">
              <g id="Group_906" data-name="Group 906">
                <g id="Group_905" data-name="Group 905">
                  <path id="Path_2028" data-name="Path 2028" d="M414.195,196.042a3.888,3.888,0,0,1-1.957-.443,5.431,5.431,0,0,1-2.134-2.069,22.346,22.346,0,0,1-1.6-3.422c-1.008-2.51-1.77-4.841-2.286-6.539-.081-.269-.155-.514-.225-.749-.046-.29-.092-.547-.142-.737-2.947-11.264-12.847-13.364-14.806-13.364-2.1,0-5.775-1.155-11.131,4.411a12.124,12.124,0,0,0-2.032,2.8,12.088,12.088,0,0,0-2.387,5.087,6.116,6.116,0,0,0-.125,2.681c.1,0,.118-1.02.538-2.584a13.063,13.063,0,0,1,1.036-2.659,10.262,10.262,0,0,0,.549,6.221l1.922-.529,6.878-2.34c-.625-2.131.3-4.776.816-6.009l.052-.047a10.748,10.748,0,0,0,9.093,8.831l1.271,17.689c9.145-1.954,8.936-14.19,8.878-16.676.414,1.4.954,3.01,1.632,4.7a20.278,20.278,0,0,0,1.672,3.486,5.592,5.592,0,0,0,2.373,2.14,3.726,3.726,0,0,0,2.133.315,1.391,1.391,0,0,0,.737-.283C414.94,195.913,414.677,196.009,414.195,196.042Z" transform="translate(-375.291 -168.619)" fill="#212667"/>
                </g>
              </g>
            </g>
          </g>
          <g id="Group_923" data-name="Group 923" transform="translate(99.406 22.64)">
            <g id="Group_917" data-name="Group 917">
              <g id="Group_916" data-name="Group 916">
                <g id="Group_915" data-name="Group 915">
                  <g id="Group_914" data-name="Group 914">
                    <path id="Path_2030" data-name="Path 2030" d="M403.424,194.889a6.688,6.688,0,0,1,.29-2.667,2.515,2.515,0,0,1,1.942-1.677,2.129,2.129,0,0,1,2.193,1.773,2.623,2.623,0,0,1-1.335,2.6,3.439,3.439,0,0,1-3,.084" transform="translate(-403.41 -190.535)" fill="#e5baab"/>
                  </g>
                </g>
              </g>
            </g>
            <g id="Group_922" data-name="Group 922" transform="translate(1.576 1.133)">
              <g id="Group_921" data-name="Group 921">
                <g id="Group_920" data-name="Group 920">
                  <g id="Group_919" data-name="Group 919">
                    <g id="Group_918" data-name="Group 918">
                      <path id="Path_2031" data-name="Path 2031" d="M405.289,194.31c.033-.059.292.073.673-.043a1.212,1.212,0,0,0,.81-1.148.916.916,0,0,0-.193-.72.81.81,0,0,0-.59-.176c-.4.035-.689.143-.713.074-.017-.046.182-.252.666-.389a1.065,1.065,0,0,1,.907.176,1.239,1.239,0,0,1,.372,1.064,1.685,1.685,0,0,1-.4,1.009,1.247,1.247,0,0,1-.8.421C405.49,194.632,405.245,194.343,405.289,194.31Z" transform="translate(-405.276 -191.876)" fill="#d78776"/>
                    </g>
                  </g>
                </g>
              </g>
            </g>
          </g>
          <g id="Group_958" data-name="Group 958" transform="translate(82.772 233.013)">
            <g id="Group_927" data-name="Group 927">
              <g id="Group_926" data-name="Group 926">
                <g id="Group_925" data-name="Group 925">
                  <g id="Group_924" data-name="Group 924">
                    <path id="Path_2032" data-name="Path 2032" d="M393.663,447.573V439.7l14.746-.095.122,11.517-.913.065c-4.069.252-20.7.994-23.425.187C381.153,450.474,393.663,447.573,393.663,447.573Z" transform="translate(-383.716 -439.606)" fill="#3a6cd6"/>
                  </g>
                </g>
              </g>
            </g>
            <g id="Group_932" data-name="Group 932" transform="translate(0.127 10.795)">
              <g id="Group_931" data-name="Group 931">
                <g id="Group_930" data-name="Group 930">
                  <g id="Group_929" data-name="Group 929">
                    <g id="Group_928" data-name="Group 928">
                      <path id="Path_2033" data-name="Path 2033" d="M383.867,452.64c0-.138,5.516-.253,12.318-.253s12.319.114,12.319.253-5.514.253-12.319.253S383.867,452.779,383.867,452.64Z" transform="translate(-383.867 -452.387)" fill="#184bb8"/>
                    </g>
                  </g>
                </g>
              </g>
            </g>
            <g id="Group_937" data-name="Group 937" transform="translate(8.566 8.125)">
              <g id="Group_936" data-name="Group 936">
                <g id="Group_935" data-name="Group 935">
                  <g id="Group_934" data-name="Group 934">
                    <g id="Group_933" data-name="Group 933">
                      <path id="Path_2034" data-name="Path 2034" d="M394.98,450.674c-.123.068-.41-.215-.7-.593s-.492-.73-.394-.831.477.111.794.524S395.1,450.608,394.98,450.674Z" transform="translate(-393.858 -449.225)" fill="#184bb8"/>
                    </g>
                  </g>
                </g>
              </g>
            </g>
            <g id="Group_942" data-name="Group 942" transform="translate(7.707 8.367)">
              <g id="Group_941" data-name="Group 941">
                <g id="Group_940" data-name="Group 940">
                  <g id="Group_939" data-name="Group 939">
                    <g id="Group_938" data-name="Group 938">
                      <path id="Path_2035" data-name="Path 2035" d="M393.881,451.237c-.131.052-.4-.3-.665-.759s-.452-.861-.343-.95.488.2.778.694S394.009,451.187,393.881,451.237Z" transform="translate(-392.841 -449.512)" fill="#184bb8"/>
                    </g>
                  </g>
                </g>
              </g>
            </g>
            <g id="Group_947" data-name="Group 947" transform="translate(20.309 8.221)">
              <g id="Group_946" data-name="Group 946">
                <g id="Group_945" data-name="Group 945">
                  <g id="Group_944" data-name="Group 944">
                    <g id="Group_943" data-name="Group 943">
                      <path id="Path_2036" data-name="Path 2036" d="M407.775,452.113c-.056-.04.062-.318.318-.731a5.178,5.178,0,0,1,1.291-1.432,2.974,2.974,0,0,1,1.875-.6c.521.034.792.232.767.286-.024.074-.315.013-.758.07a3.513,3.513,0,0,0-1.589.656,9.35,9.35,0,0,0-1.3,1.24C408.054,451.947,407.831,452.156,407.775,452.113Z" transform="translate(-407.761 -449.34)" fill="#184bb8"/>
                    </g>
                  </g>
                </g>
              </g>
            </g>
            <g id="Group_952" data-name="Group 952" transform="translate(9.631 8.028)">
              <g id="Group_951" data-name="Group 951">
                <g id="Group_950" data-name="Group 950">
                  <g id="Group_949" data-name="Group 949">
                    <g id="Group_948" data-name="Group 948">
                      <path id="Path_2037" data-name="Path 2037" d="M395.131,449.176c.071-.122.4-.059.773.069s.669.291.648.431-.394.194-.815.046S395.061,449.294,395.131,449.176Z" transform="translate(-395.119 -449.111)" fill="#184bb8"/>
                    </g>
                  </g>
                </g>
              </g>
            </g>
            <g id="Group_957" data-name="Group 957" transform="translate(9.874 7.092)">
              <g id="Group_956" data-name="Group 956">
                <g id="Group_955" data-name="Group 955">
                  <g id="Group_954" data-name="Group 954">
                    <g id="Group_953" data-name="Group 953">
                      <path id="Path_2038" data-name="Path 2038" d="M395.407,448.243c.013-.139.409-.247.884-.24s.868.124.878.264-.387.247-.884.241S395.393,448.382,395.407,448.243Z" transform="translate(-395.407 -448.003)" fill="#184bb8"/>
                    </g>
                  </g>
                </g>
              </g>
            </g>
          </g>
          <g id="Group_963" data-name="Group 963" transform="translate(71.471 99.435)">
            <g id="Group_962" data-name="Group 962">
              <g id="Group_961" data-name="Group 961">
                <g id="Group_960" data-name="Group 960">
                  <g id="Group_959" data-name="Group 959">
                    <path id="Path_2039" data-name="Path 2039" d="M378.415,286.412l-8.079,1.348,4.651,5.722c1.336,26.936,1.013,53.027,2.247,66.038.187,1.974,8.527,63.945,7.7,62.494l24.559,1.025-7.33-62.236,3.475-55.274a29.26,29.26,0,0,0,3.074-21.586l-.609-2.486" transform="translate(-370.336 -281.456)" fill="#212667"/>
                  </g>
                </g>
              </g>
            </g>
          </g>
          <g id="Group_1002" data-name="Group 1002" transform="translate(0 42.514)">
            <g id="Group_969" data-name="Group 969">
              <g id="Group_965" data-name="Group 965">
                <g id="Group_964" data-name="Group 964">
                  <path id="Rectangle_323" data-name="Rectangle 323" d="M7.726,0H75.185A7.725,7.725,0,0,1,82.91,7.725v112.05a7.726,7.726,0,0,1-7.726,7.726H7.725A7.725,7.725,0,0,1,0,119.776V7.726A7.726,7.726,0,0,1,7.726,0Z" transform="matrix(0.28, -0.96, 0.96, 0.28, 0, 79.599)" fill="#3a6cd6"/>
                </g>
              </g>
              <g id="Group_968" data-name="Group 968" transform="translate(1.363 1.339)">
                <g id="Group_967" data-name="Group 967">
                  <g id="Group_966" data-name="Group 966">
                    <path id="Path_2040" data-name="Path 2040" d="M402.113,327.757c.006-.024.345.106,1.039.182a6.5,6.5,0,0,0,6.616-3.683,26.355,26.355,0,0,0,.971-3.054q.478-1.656,1.017-3.524c2.885-9.963,7.057-24.365,12.211-42.159q1.938-6.674,4.056-13.967.528-1.822,1.068-3.679a11.156,11.156,0,0,0,.726-3.754,6.369,6.369,0,0,0-4.508-5.765l-33.4-9.716-76.532-22.285a6.28,6.28,0,0,0-4.929.6,6.4,6.4,0,0,0-2.971,3.956l-2.911,9.987q-2.891,9.916-5.694,19.525c-3.735,12.8-7.338,25.146-10.77,36.909a6.416,6.416,0,0,0,.042,4.345,6.263,6.263,0,0,0,2.76,3.266,8.343,8.343,0,0,0,2.028.786l2.128.621,4.209,1.229,16.209,4.736,29.092,8.507,42.117,12.348,11.444,3.379,2.973.889c.669.2,1.008.318,1.008.318s-.348-.085-1.021-.274l-2.986-.847-11.468-3.3-42.157-12.211-29.108-8.454-16.216-4.714-4.21-1.225-2.128-.618a8.778,8.778,0,0,1-2.118-.822,6.666,6.666,0,0,1-2.942-3.475,6.836,6.836,0,0,1-.057-4.6c3.424-11.764,7.019-24.113,10.745-36.916q2.8-9.6,5.687-19.526,1.446-4.959,2.91-9.988a6.859,6.859,0,0,1,3.177-4.22,6.728,6.728,0,0,1,5.281-.643l76.522,22.319L425.418,248a6.721,6.721,0,0,1,4.76,6.106,6.518,6.518,0,0,1-.209,2c-.166.64-.361,1.251-.538,1.873l-1.074,3.678-4.084,13.958c-5.211,17.778-9.43,32.165-12.349,42.119q-.549,1.864-1.036,3.518a25.985,25.985,0,0,1-1,3.069,6.508,6.508,0,0,1-3.672,3.334,6.363,6.363,0,0,1-3.07.337,4.817,4.817,0,0,1-.776-.155C402.2,327.785,402.113,327.757,402.113,327.757Z" transform="translate(-287.332 -215.65)" fill="#14365b"/>
                  </g>
                </g>
              </g>
            </g>
            <g id="Group_971" data-name="Group 971" transform="translate(104.925 37.669)">
              <g id="Group_970" data-name="Group 970">
                <path id="Path_2041" data-name="Path 2041" d="M427.2,269.928a8.8,8.8,0,1,1-5.987-10.911A8.8,8.8,0,0,1,427.2,269.928Z" transform="translate(-409.945 -258.663)" fill="#fff"/>
              </g>
            </g>
            <g id="Group_973" data-name="Group 973" transform="translate(114.671 40.202)">
              <g id="Group_972" data-name="Group 972">
                <path id="Path_2042" data-name="Path 2042" d="M430.734,280.136a9.3,9.3,0,0,1-2.6-.372,9.184,9.184,0,1,1,2.6.372Zm-.026-17.609a8.382,8.382,0,1,0,2.353.339A8.318,8.318,0,0,0,430.708,262.527Z" transform="translate(-421.483 -261.662)" fill="#fff"/>
              </g>
            </g>
            <g id="Group_989" data-name="Group 989" transform="translate(16.531 53.384)">
              <g id="Group_974" data-name="Group 974">
                <path id="Path_2043" data-name="Path 2043" d="M307.969,277.939l-1.98,6.794-.7-.2,1.8-6.174-1.6-.466.181-.622Z" transform="translate(-305.29 -277.268)" fill="#fff"/>
              </g>
              <g id="Group_975" data-name="Group 975" transform="translate(2.922 1.73)">
                <path id="Path_2044" data-name="Path 2044" d="M313.7,286.468l-.181.621-4.766-1.389.144-.494,3.631-1.943c.987-.535,1.266-.949,1.4-1.415.23-.786-.182-1.432-1.22-1.737a2.4,2.4,0,0,0-2.075.218l-.371-.572a3.185,3.185,0,0,1,2.691-.269c1.378.4,2.048,1.356,1.717,2.492-.189.65-.563,1.174-1.736,1.8l-2.973,1.6Z" transform="translate(-308.749 -279.317)" fill="#fff"/>
              </g>
              <g id="Group_976" data-name="Group 976" transform="translate(9.469 4.123)">
                <path id="Path_2045" data-name="Path 2045" d="M322.394,287.827l-1.359-.4-.521,1.786-.7-.2.52-1.786L316.5,286.11l.147-.506,4.914-3.455.777.226-4.755,3.376,2.952.86.459-1.574.679.2-.458,1.574,1.359.4Z" transform="translate(-316.501 -282.15)" fill="#fff"/>
              </g>
              <g id="Group_977" data-name="Group 977" transform="translate(19.883 7.158)">
                <path id="Path_2046" data-name="Path 2046" d="M334.723,291.421l-1.359-.4-.52,1.786-.7-.2.52-1.786L328.83,289.7l.147-.505,4.915-3.455.776.226-4.754,3.376,2.951.86.459-1.573.679.2-.458,1.573,1.359.4Z" transform="translate(-328.83 -285.743)" fill="#fff"/>
              </g>
              <g id="Group_978" data-name="Group 978" transform="translate(26.529 8.369)">
                <path id="Path_2047" data-name="Path 2047" d="M341.948,293.16c-.337,1.156-1.406,1.824-3.068,1.34a3.66,3.66,0,0,1-2.181-1.584l.5-.455a3.068,3.068,0,0,0,1.858,1.395c1.155.337,1.931-.048,2.172-.873.254-.873-.13-1.576-1.858-2.079l-1.447-.421,1.343-3.306,3.718,1.084-.181.622-3.107-.905-.866,2.1.875.254C341.756,290.924,342.3,291.957,341.948,293.16Z" transform="translate(-336.699 -287.176)" fill="#fff"/>
              </g>
              <g id="Group_979" data-name="Group 979" transform="translate(33.539 10.716)">
                <path id="Path_2048" data-name="Path 2048" d="M349.96,295.52a2.2,2.2,0,0,1-2.928,1.411c-1.807-.526-2.422-2.064-1.8-4.21.674-2.311,2.286-3.147,4.131-2.61a3.248,3.248,0,0,1,1.5.839l-.446.481a2.5,2.5,0,0,0-1.226-.705c-1.466-.427-2.683.24-3.22,2.085-.046.155-.092.351-.132.561a2.264,2.264,0,0,1,2.417-.558A2.142,2.142,0,0,1,349.96,295.52Zm-.694-.182a1.554,1.554,0,0,0-1.281-1.963,1.559,1.559,0,1,0-.809,2.956A1.55,1.55,0,0,0,349.266,295.338Z" transform="translate(-344.998 -289.955)" fill="#fff"/>
              </g>
              <g id="Group_980" data-name="Group 980" transform="translate(42.533 12.875)">
                <path id="Path_2049" data-name="Path 2049" d="M360.89,298.7c-.331,1.136-1.411,1.77-3.052,1.291a3.685,3.685,0,0,1-2.192-1.586l.5-.455a3.1,3.1,0,0,0,1.878,1.4c1.125.329,1.9-.014,2.146-.859.237-.815-.179-1.517-1.442-1.884l-.485-.141.15-.515,2.57-1.81-3.477-1.012.182-.622,4.368,1.272-.144.495-2.627,1.859C360.7,296.638,361.207,297.618,360.89,298.7Z" transform="translate(-355.647 -292.511)" fill="#fff"/>
              </g>
              <g id="Group_981" data-name="Group 981" transform="translate(49.649 15.411)">
                <path id="Path_2050" data-name="Path 2050" d="M369.035,301.079a2.208,2.208,0,0,1-2.93,1.411c-1.8-.527-2.422-2.066-1.8-4.21.673-2.311,2.287-3.147,4.131-2.609a3.249,3.249,0,0,1,1.5.839l-.445.481a2.491,2.491,0,0,0-1.227-.705c-1.465-.427-2.683.24-3.22,2.085-.046.155-.092.351-.132.561a2.262,2.262,0,0,1,2.416-.558A2.143,2.143,0,0,1,369.035,301.079Zm-.7-.182a1.554,1.554,0,0,0-1.28-1.963,1.559,1.559,0,1,0-.81,2.955A1.549,1.549,0,0,0,368.339,300.9Z" transform="translate(-364.072 -295.514)" fill="#fff"/>
              </g>
              <g id="Group_982" data-name="Group 982" transform="translate(56.67 16.577)">
                <path id="Path_2051" data-name="Path 2051" d="M377.966,298.348l-.144.495-4.68,5.472-.758-.22,4.6-5.359-3.5-1.019-.37,1.271-.691-.2.552-1.893Z" transform="translate(-372.384 -296.894)" fill="#fff"/>
              </g>
              <g id="Group_983" data-name="Group 983" transform="translate(66.385 19.407)">
                <path id="Path_2052" data-name="Path 2052" d="M389.467,301.7l-.144.495-4.681,5.471-.756-.22,4.6-5.358-3.5-1.019-.372,1.272-.689-.2.552-1.894Z" transform="translate(-383.886 -300.245)" fill="#fff"/>
              </g>
              <g id="Group_984" data-name="Group 984" transform="translate(71.879 21.822)">
                <path id="Path_2053" data-name="Path 2053" d="M395.737,309c-.351,1.2-1.588,1.655-3.21,1.182s-2.4-1.513-2.052-2.715a1.768,1.768,0,0,1,1.8-1.289,1.6,1.6,0,0,1-.632-1.8c.322-1.107,1.465-1.523,2.9-1.1s2.2,1.389,1.875,2.5a1.6,1.6,0,0,1-1.523,1.177A1.786,1.786,0,0,1,395.737,309Zm-.715-.22c.243-.835-.323-1.568-1.527-1.918s-2.065-.035-2.308.8.31,1.576,1.514,1.927S394.776,309.621,395.021,308.776Zm-1.365-2.473c1.058.308,1.828.018,2.043-.72.223-.766-.312-1.428-1.33-1.726s-1.816-.023-2.036.735S392.6,305.994,393.656,306.3Z" transform="translate(-390.392 -303.104)" fill="#fff"/>
              </g>
              <g id="Group_985" data-name="Group 985" transform="translate(78.645 23.74)">
                <path id="Path_2054" data-name="Path 2054" d="M404.037,309.708c-.673,2.311-2.286,3.148-4.131,2.61a3.245,3.245,0,0,1-1.5-.839l.445-.481a2.472,2.472,0,0,0,1.227.705c1.465.427,2.683-.24,3.22-2.085.046-.155.092-.353.132-.562a2.262,2.262,0,0,1-2.417.559,2.143,2.143,0,0,1-1.7-2.707,2.205,2.205,0,0,1,2.928-1.411C404.046,306.024,404.662,307.563,404.037,309.708Zm-.568-1.629c.218-.747-.2-1.638-1.373-1.98a1.546,1.546,0,1,0-.807,2.956A1.639,1.639,0,0,0,403.469,308.079Z" transform="translate(-398.402 -305.375)" fill="#fff"/>
              </g>
              <g id="Group_986" data-name="Group 986" transform="translate(89.463 26.071)">
                <path id="Path_2055" data-name="Path 2055" d="M413.889,308.8l-1.981,6.8-.7-.2,1.8-6.173-1.6-.467.181-.622Z" transform="translate(-411.21 -308.135)" fill="#fff"/>
              </g>
              <g id="Group_987" data-name="Group 987" transform="translate(92.384 27.801)">
                <path id="Path_2056" data-name="Path 2056" d="M419.615,317.335l-.181.621-4.766-1.389.144-.494,3.632-1.944c.987-.534,1.266-.949,1.4-1.414.229-.786-.182-1.433-1.221-1.736a2.4,2.4,0,0,0-2.075.217l-.371-.573a3.184,3.184,0,0,1,2.691-.269c1.378.4,2.048,1.356,1.717,2.491-.19.651-.563,1.174-1.736,1.8l-2.973,1.6Z" transform="translate(-414.668 -310.183)" fill="#fff"/>
              </g>
              <g id="Group_988" data-name="Group 988" transform="translate(98.572 29.205)">
                <path id="Path_2057" data-name="Path 2057" d="M427.237,318.039c-.331,1.137-1.411,1.77-3.052,1.292a3.68,3.68,0,0,1-2.191-1.587l.5-.455a3.1,3.1,0,0,0,1.878,1.4c1.125.328,1.9-.014,2.145-.86.238-.816-.18-1.516-1.442-1.884l-.485-.143.15-.515,2.571-1.808-3.477-1.014.182-.622,4.368,1.273-.144.5-2.627,1.857C427.049,315.972,427.554,316.952,427.237,318.039Z" transform="translate(-421.994 -311.845)" fill="#fff"/>
              </g>
            </g>
            <g id="Group_991" data-name="Group 991" transform="translate(65.254 80.59)">
              <g id="Group_990" data-name="Group 990">
                <rect id="Rectangle_324" data-name="Rectangle 324" width="3.073" height="56.692" transform="translate(0 2.951) rotate(-73.757)" fill="#fff"/>
              </g>
            </g>
            <g id="Group_993" data-name="Group 993" transform="translate(90.051 94.207)">
              <g id="Group_992" data-name="Group 992">
                <rect id="Rectangle_325" data-name="Rectangle 325" width="3.074" height="29.077" transform="matrix(0.28, -0.96, 0.96, 0.28, 0, 2.951)" fill="#fff"/>
              </g>
            </g>
            <g id="Group_995" data-name="Group 995" transform="translate(16.76 29.961)">
              <g id="Group_994" data-name="Group 994">
                <path id="Rectangle_326" data-name="Rectangle 326" d="M4.964,0h13.86a4.963,4.963,0,0,1,4.963,4.963v7.843a4.964,4.964,0,0,1-4.964,4.964H4.963A4.963,4.963,0,0,1,0,12.807V4.964A4.964,4.964,0,0,1,4.964,0Z" transform="translate(4.972) rotate(16.247)" fill="#184bb8"/>
              </g>
            </g>
            <g id="Group_997" data-name="Group 997" transform="translate(18.136 35.188)">
              <g id="Group_996" data-name="Group 996">
                <path id="Path_2058" data-name="Path 2058" d="M307.191,262.836l.319-1.095,11.758,3.428a2.564,2.564,0,1,0,1.435-4.922l-11.76-3.428.32-1.094,11.758,3.427a3.7,3.7,0,1,1-2.072,7.112Z" transform="translate(-307.191 -255.725)" fill="#3a6cd6"/>
              </g>
            </g>
            <g id="Group_999" data-name="Group 999" transform="translate(33.781 42.495)">
              <g id="Group_998" data-name="Group 998">
                <rect id="Rectangle_327" data-name="Rectangle 327" width="1.14" height="8.407" transform="translate(0 1.094) rotate(-73.7)" fill="#3a6cd6"/>
              </g>
            </g>
            <g id="Group_1001" data-name="Group 1001" transform="translate(27.051 16.708)">
              <g id="Group_1000" data-name="Group 1000">
                <rect id="Rectangle_328" data-name="Rectangle 328" width="61.177" height="5.25" transform="translate(1.469) rotate(16.25)" fill="#fff"/>
              </g>
            </g>
          </g>
          <g id="Group_1004" data-name="Group 1004" transform="translate(93.854)">
            <g id="Group_1003" data-name="Group 1003">
              <path id="Path_2059" data-name="Path 2059" d="M399.458,170.851a4.134,4.134,0,0,1-2.522-2.807,3.63,3.63,0,0,1,1.114-3.558,3.242,3.242,0,0,1,3.66-.342,4.643,4.643,0,0,1,1.819,2.553,3.71,3.71,0,0,1,.22,2.092,3.076,3.076,0,0,1-2.264,2.041,9.063,9.063,0,0,1-3.179.086" transform="translate(-396.837 -163.73)" fill="#212667"/>
            </g>
          </g>
          <g id="Group_1007" data-name="Group 1007" transform="translate(97.185 6.555)">
            <g id="Group_1006" data-name="Group 1006">
              <g id="Group_1005" data-name="Group 1005">
                <path id="Path_2060" data-name="Path 2060" d="M421.745,187.045a2.627,2.627,0,0,0,.052-1.1,2.494,2.494,0,0,0-.587-1.124,2.976,2.976,0,0,0-1.447-.834,6.236,6.236,0,0,0-2.077-.148c-.76.049-1.579.184-2.469.2a4.853,4.853,0,0,1-2.737-.649,4.383,4.383,0,0,1-1.636-2.528,13.449,13.449,0,0,0-2.692-4.831,14.311,14.311,0,0,0-3.483-2.907,19.968,19.968,0,0,0-3.888-1.629c0-.015.1-.007.3.023a6.943,6.943,0,0,1,.835.17,12.121,12.121,0,0,1,2.914,1.16,13.915,13.915,0,0,1,3.637,2.911,13.484,13.484,0,0,1,2.808,4.961,3.992,3.992,0,0,0,1.449,2.3,4.5,4.5,0,0,0,2.492.6c.849-.008,1.669-.128,2.453-.163a6.4,6.4,0,0,1,2.187.215,3.186,3.186,0,0,1,1.549.975,2.588,2.588,0,0,1,.568,1.259,1.83,1.83,0,0,1-.079.866C421.823,186.968,421.754,187.05,421.745,187.045Z" transform="translate(-400.78 -171.491)" fill="#212667"/>
              </g>
            </g>
          </g>
          <g id="Group_1010" data-name="Group 1010" transform="translate(99.623 26.571)">
            <g id="Group_1009" data-name="Group 1009">
              <g id="Group_1008" data-name="Group 1008">
                <path id="Path_2061" data-name="Path 2061" d="M406.659,195.561c.028-.041.405.28.4,1.006a1.6,1.6,0,0,1-.509,1.127,1.7,1.7,0,0,1-2.689-.442,1.594,1.594,0,0,1-.122-1.231c.226-.69.688-.873.7-.824.051.052-.285.316-.39.9a1.355,1.355,0,0,0,.172.951,1.346,1.346,0,0,0,2.052.337,1.352,1.352,0,0,0,.468-.845C406.827,195.952,406.594,195.594,406.659,195.561Z" transform="translate(-403.667 -195.189)" fill="#14365b"/>
              </g>
            </g>
          </g>
          <g id="Group_1013" data-name="Group 1013" transform="translate(93.84 4.63)">
            <g id="Group_1012" data-name="Group 1012">
              <g id="Group_1011" data-name="Group 1011">
                <path id="Path_2062" data-name="Path 2062" d="M403.417,172.762a12.811,12.811,0,0,0-6.6-3.489,7.424,7.424,0,0,1,6.6,3.489Z" transform="translate(-396.82 -169.212)" fill="#14365b"/>
              </g>
            </g>
          </g>
          <g id="Group_1016" data-name="Group 1016" transform="translate(102.675 25.875)">
            <g id="Group_1015" data-name="Group 1015">
              <g id="Group_1014" data-name="Group 1014">
                <path id="Path_2063" data-name="Path 2063" d="M408.181,194.4c0-.059.237-.079.389.2a.6.6,0,0,1,.008.531.658.658,0,0,1-.571.351.684.684,0,0,1-.721-.764c.039-.284.2-.384.247-.349s.025.17.072.339a.383.383,0,0,0,.386.323.273.273,0,0,0,.28-.324C408.261,194.55,408.163,194.464,408.181,194.4Z" transform="translate(-407.281 -194.365)" fill="#14365b"/>
              </g>
            </g>
          </g>
          <g id="Group_1019" data-name="Group 1019" transform="translate(83.289 42.66)">
            <g id="Group_1018" data-name="Group 1018">
              <g id="Group_1017" data-name="Group 1017">
                <path id="Path_2064" data-name="Path 2064" d="M398.859,214.238a2.524,2.524,0,0,1,.094.908,7.037,7.037,0,0,1-.491,2.446,7.5,7.5,0,0,1-2.167,3.009,7.464,7.464,0,0,1-8.628.52,7.5,7.5,0,0,1-2.513-2.726,7.056,7.056,0,0,1-.781-2.37,2.524,2.524,0,0,1-.016-.912,9.951,9.951,0,0,0,1.075,3.126,7.46,7.46,0,0,0,2.456,2.531,7.209,7.209,0,0,0,8.145-.491,7.46,7.46,0,0,0,2.134-2.809A9.927,9.927,0,0,0,398.859,214.238Z" transform="translate(-384.329 -214.238)" fill="#5987e4"/>
              </g>
            </g>
          </g>
          <g id="Group_1022" data-name="Group 1022" transform="translate(88.885 146.292)">
            <g id="Group_1021" data-name="Group 1021">
              <g id="Group_1020" data-name="Group 1020">
                <path id="Path_2065" data-name="Path 2065" d="M398.125,426.027a.884.884,0,0,1-.049-.226c-.027-.177-.059-.4-.1-.671l-.339-2.583c-.288-2.244-.671-5.5-1.116-9.516-.894-8.04-2-19.164-2.987-31.468s-1.676-23.466-2.077-31.547c-.2-4.04-.343-7.31-.418-9.571-.033-1.1-.059-1.974-.078-2.6,0-.275-.007-.5-.008-.677a.117.117,0,1,1,.046,0c.014.178.032.4.054.676.039.628.093,1.5.162,2.6.134,2.294.325,5.552.561,9.562.482,8.074,1.221,19.224,2.208,31.528s2.041,23.423,2.854,31.471c.408,4,.74,7.243.973,9.529l.255,2.592c.022.275.04.5.055.676A.932.932,0,0,1,398.125,426.027Z" transform="translate(-390.954 -336.932)" fill="#3a6cd6"/>
              </g>
            </g>
          </g>
          <g id="Group_1025" data-name="Group 1025" transform="translate(85.73 235.294)">
            <g id="Group_1024" data-name="Group 1024">
              <g id="Group_1023" data-name="Group 1023">
                <path id="Path_2066" data-name="Path 2066" d="M411.268,442.459a3.841,3.841,0,0,1-.94.131c-.607.057-1.487.114-2.575.166-2.177.106-5.189.156-8.511.106s-6.329-.153-8.5-.237l-2.575-.121a3.847,3.847,0,0,1-.943-.1,3.826,3.826,0,0,1,.946-.071c.61-.017,1.491-.024,2.58-.022,2.177,0,5.184.056,8.5.1s6.321.052,8.5.027l2.577-.022A3.911,3.911,0,0,1,411.268,442.459Z" transform="translate(-387.219 -442.306)" fill="#3a6cd6"/>
              </g>
            </g>
          </g>
          <g id="Group_1029" data-name="Group 1029" transform="translate(41.125 61.693)">
            <g id="Group_1028" data-name="Group 1028">
              <g id="Group_1027" data-name="Group 1027">
                <g id="Group_1026" data-name="Group 1026">
                  <path id="Path_2067" data-name="Path 2067" d="M407.85,246.259l-14.425-9.488s-7.053,20.32-9.215,20.517c-11.977,1.092-24.792-2.879-29.285-4.449-.456-.512-.976-1.127-1.557-1.879a7.167,7.167,0,0,1-1.128-2.152,10.956,10.956,0,0,1-.641-2.959.94.94,0,0,0-1.615-.741c-.519.67-.65,3.237.532,6s-3,.564-4.542-.209-6.414-2.942-7.026-2.656c-.9.418-.616,1.457.939,2.193,1.574.746,6.064,3.273,5.616,4.066s-8.223-3.26-8.223-3.26-1.523-1.133-2.07-.234c-.988,1.622,7.6,5.31,8.428,5.64.574.23.118,1.109-.485.829-.622-.288-7.668-4.212-8.69-2.57-.783,1.26,7.037,3.1,8.047,4.725s-5.789-2-6.488-.763c-.26.459-.391.838,3.814,2.356a89.712,89.712,0,0,0,9.372,2.393l-.015.042s42.94,19.223,51.062.677C408.9,244.586,407.85,246.259,407.85,246.259Z" transform="translate(-334.408 -236.771)" fill="#e5baab"/>
                </g>
              </g>
            </g>
          </g>
          <g id="Group_1034" data-name="Group 1034" transform="translate(91.625 43.403)">
            <g id="Group_1033" data-name="Group 1033">
              <g id="Group_1032" data-name="Group 1032">
                <g id="Group_1031" data-name="Group 1031">
                  <g id="Group_1030" data-name="Group 1030">
                    <path id="Path_2068" data-name="Path 2068" d="M407.659,215.117s13.123,1.547,11.735,17.152a76.224,76.224,0,0,1-7.994,27.679l-17.2-9.033a106.589,106.589,0,0,0,8.676-24.338l4.785-11.46Z" transform="translate(-394.198 -215.117)" fill="#88b7fc"/>
                  </g>
                </g>
              </g>
            </g>
          </g>
          <g id="Group_1046" data-name="Group 1046" transform="translate(91.607 59.444)">
            <g id="Group_1045" data-name="Group 1045">
              <g id="Group_1044" data-name="Group 1044">
                <path id="Path_2072" data-name="Path 2072" d="M401.862,234.109a2.912,2.912,0,0,1-.145.818c-.121.519-.319,1.263-.585,2.177-.53,1.829-1.353,4.33-2.417,7.035s-2.169,5.1-3.027,6.8c-.429.85-.791,1.53-1.057,1.992a2.963,2.963,0,0,1-.45.7A25.162,25.162,0,0,1,395.4,250.8c.783-1.73,1.835-4.13,2.9-6.824s1.926-5.167,2.531-6.967A25.347,25.347,0,0,1,401.862,234.109Z" transform="translate(-394.176 -234.109)" fill="#5987e4"/>
              </g>
            </g>
          </g>
        </g>
      </g>
    </g>
  </g>
</svg>
